G04 #@! TF.FileFunction,Copper,L1,Top,Signal*
%FSLAX46Y46*%
G04 Gerber Fmt 4.6, Leading zero omitted, Abs format (unit mm)*
G04 Created by KiCad (PCBNEW (2015-01-08 BZR 5360)-product) date 2015-02-07T22:50:42 CET*
%MOMM*%
G01*
G04 APERTURE LIST*
%ADD10C,0.150000*%
%ADD11R,2.032000X2.032000*%
%ADD12O,2.032000X2.032000*%
%ADD13R,1.727200X2.032000*%
%ADD14O,1.727200X2.032000*%
%ADD15R,1.500000X1.500000*%
%ADD16C,1.500000*%
%ADD17O,1.300000X2.500000*%
%ADD18C,0.889000*%
%ADD19C,0.254000*%
G04 APERTURE END LIST*
D10*
D11*
X67305000Y-62145000D03*
D12*
X64765000Y-62145000D03*
D11*
X67305000Y-64685000D03*
D12*
X64765000Y-64685000D03*
D13*
X92705000Y-64685000D03*
D14*
X90165000Y-64685000D03*
X87625000Y-64685000D03*
X85085000Y-64685000D03*
X82545000Y-64685000D03*
X80005000Y-64685000D03*
X77465000Y-64685000D03*
X74925000Y-64685000D03*
X72385000Y-64685000D03*
D11*
X100325000Y-64685000D03*
D12*
X97785000Y-64685000D03*
D13*
X92705000Y-62145000D03*
D14*
X90165000Y-62145000D03*
X87625000Y-62145000D03*
X85085000Y-62145000D03*
X82545000Y-62145000D03*
X80005000Y-62145000D03*
X77465000Y-62145000D03*
X74925000Y-62145000D03*
X72385000Y-62145000D03*
D11*
X100325000Y-62145000D03*
D12*
X97785000Y-62145000D03*
D15*
X96400000Y-75080000D03*
D16*
X95380000Y-73300000D03*
X94360000Y-75080000D03*
X93340000Y-73300000D03*
X92320000Y-75080000D03*
X91300000Y-73300000D03*
X90280000Y-75080000D03*
X89260000Y-73300000D03*
D17*
X100930000Y-74190000D03*
X84730000Y-74190000D03*
D16*
X97400000Y-68620000D03*
X99690000Y-68620000D03*
X85970000Y-68620000D03*
X88260000Y-68620000D03*
D15*
X75370000Y-75080000D03*
D16*
X74350000Y-73300000D03*
X73330000Y-75080000D03*
X72310000Y-73300000D03*
X71290000Y-75080000D03*
X70270000Y-73300000D03*
X69250000Y-75080000D03*
X68230000Y-73300000D03*
D17*
X79900000Y-74190000D03*
X63700000Y-74190000D03*
D16*
X76370000Y-68620000D03*
X78660000Y-68620000D03*
X64940000Y-68620000D03*
X67230000Y-68620000D03*
D18*
X77465000Y-72432000D03*
X77973000Y-70273000D03*
X69210000Y-72051000D03*
X94229000Y-72051000D03*
X87117000Y-70781000D03*
X87561500Y-72813000D03*
X94991000Y-68622000D03*
D19*
X75365000Y-75095000D02*
X76834000Y-75095000D01*
X76834000Y-75095000D02*
X84450000Y-67479000D01*
X84450000Y-67479000D02*
X91943000Y-67479000D01*
X91943000Y-67479000D02*
X92705000Y-66717000D01*
X92705000Y-66717000D02*
X92705000Y-64685000D01*
X78441152Y-72051000D02*
X84029156Y-66462996D01*
X77465000Y-72432000D02*
X77846000Y-72051000D01*
X77846000Y-72051000D02*
X78441152Y-72051000D01*
X87625000Y-65827996D02*
X87625000Y-64685000D01*
X86990000Y-66462996D02*
X87625000Y-65827996D01*
X84029156Y-66462996D02*
X86990000Y-66462996D01*
X74345000Y-73315000D02*
X77895576Y-73315000D01*
X77895576Y-73315000D02*
X84239578Y-66970998D01*
X90165000Y-66589998D02*
X90165000Y-64685000D01*
X84239578Y-66970998D02*
X89784000Y-66970998D01*
X89784000Y-66970998D02*
X90165000Y-66589998D01*
X72305000Y-73147000D02*
X74036000Y-71416000D01*
X72305000Y-73315000D02*
X72305000Y-73147000D01*
X74036000Y-71416000D02*
X78357728Y-71416000D01*
X78357728Y-71416000D02*
X85085000Y-64688728D01*
X85085000Y-64688728D02*
X85085000Y-64685000D01*
X78735000Y-70273000D02*
X77973000Y-70273000D01*
X82545000Y-66463000D02*
X78735000Y-70273000D01*
X82545000Y-64685000D02*
X82545000Y-66463000D01*
X70265000Y-72520000D02*
X75433000Y-67352000D01*
X75433000Y-67352000D02*
X77338000Y-67352000D01*
X70265000Y-73315000D02*
X70265000Y-72520000D01*
X77338000Y-67352000D02*
X80005000Y-64685000D01*
X69210000Y-72051000D02*
X69845000Y-72051000D01*
X69845000Y-72051000D02*
X75179000Y-66717000D01*
X75179000Y-66717000D02*
X76322000Y-66717000D01*
X76322000Y-66717000D02*
X77465000Y-65574000D01*
X77465000Y-65574000D02*
X77465000Y-64685000D01*
X68225000Y-71385000D02*
X68956000Y-70654000D01*
X68956000Y-70654000D02*
X70353000Y-70654000D01*
X70353000Y-70654000D02*
X74925000Y-66082000D01*
X68225000Y-73315000D02*
X68225000Y-71385000D01*
X74925000Y-66082000D02*
X74925000Y-64685000D01*
X68834000Y-67016000D02*
X67230000Y-68620000D01*
X68834000Y-63246000D02*
X68834000Y-67016000D01*
X67733000Y-62145000D02*
X68834000Y-63246000D01*
X67305000Y-62145000D02*
X67733000Y-62145000D01*
X94362000Y-75130400D02*
X95499000Y-76267400D01*
X94362000Y-75099000D02*
X94362000Y-75130400D01*
X95499000Y-76267400D02*
X97327800Y-76267400D01*
X95753000Y-72051000D02*
X94229000Y-72051000D01*
X97581800Y-73879800D02*
X95753000Y-72051000D01*
X97581800Y-76013400D02*
X97581800Y-73879800D01*
X97327800Y-76267400D02*
X97581800Y-76013400D01*
X91011000Y-76369000D02*
X89403000Y-76369000D01*
X92285000Y-75095000D02*
X91011000Y-76369000D01*
X89403000Y-76369000D02*
X86609000Y-73575000D01*
X86609000Y-73575000D02*
X86609000Y-71289000D01*
X86609000Y-71289000D02*
X87117000Y-70781000D01*
X90241000Y-75099000D02*
X90245000Y-75095000D01*
X88895000Y-75099000D02*
X90282000Y-75099000D01*
X87625000Y-73829000D02*
X88895000Y-75099000D01*
X87625000Y-72876500D02*
X87625000Y-73829000D01*
X87561500Y-72813000D02*
X87625000Y-72876500D01*
X97785000Y-68215000D02*
X97785000Y-64685000D01*
X97365000Y-68635000D02*
X97785000Y-68215000D01*
X96007000Y-63034000D02*
X97785000Y-62145000D01*
X96007000Y-70019000D02*
X96007000Y-63034000D01*
X87192000Y-69892000D02*
X96007000Y-70019000D01*
X85935000Y-68635000D02*
X87192000Y-69892000D01*
X88225000Y-68635000D02*
X88238000Y-68622000D01*
X88238000Y-68622000D02*
X94991000Y-68622000D01*
X64516000Y-74205000D02*
X72385000Y-66336000D01*
X63695000Y-74205000D02*
X64516000Y-74205000D01*
X63241000Y-74659000D02*
X63241000Y-78528000D01*
X63241000Y-78528000D02*
X64511000Y-79798000D01*
X64511000Y-79798000D02*
X78989000Y-79798000D01*
X78989000Y-79798000D02*
X80259000Y-78528000D01*
X80259000Y-78528000D02*
X80259000Y-74569000D01*
X80259000Y-74569000D02*
X79895000Y-74205000D01*
X63695000Y-74205000D02*
X63241000Y-74659000D01*
X72385000Y-66336000D02*
X72385000Y-64685000D01*
X84323000Y-74577000D02*
X84323000Y-78655000D01*
X84323000Y-78655000D02*
X85593000Y-79925000D01*
X85593000Y-79925000D02*
X100071000Y-79925000D01*
X100071000Y-79925000D02*
X101341000Y-78655000D01*
X101341000Y-78655000D02*
X101341000Y-74651000D01*
X101341000Y-74651000D02*
X100895000Y-74205000D01*
X84695000Y-74205000D02*
X84323000Y-74577000D01*
M02*
