M48
;DRILL file {kicad (2015-01-08 BZR 5360)-product} date 2015-02-07T22:50:46 CET
;FORMAT={-:-/ absolute / inch / decimal}
FMAT,2
INCH,TZ
T1C0.020
T2C0.025
T3C0.035
T4C0.040
%
G90
G05
M72
T2
X2.7248Y-2.8367
X3.0498Y-2.8517
X3.0698Y-2.7667
X3.4298Y-2.7867
X3.4473Y-2.8667
X3.7098Y-2.8367
X3.7398Y-2.7017
T3
X2.5567Y-2.7016
X2.6469Y-2.7016
X2.6862Y-2.8858
X2.7264Y-2.9559
X2.7665Y-2.8858
X2.8067Y-2.9559
X2.8469Y-2.8858
X2.887Y-2.9559
X2.9272Y-2.8858
X2.9673Y-2.9559
X3.0067Y-2.7016
X3.0969Y-2.7016
X3.3846Y-2.7016
X3.4748Y-2.7016
X3.5142Y-2.8858
X3.5543Y-2.9559
X3.5945Y-2.8858
X3.6346Y-2.9559
X3.6748Y-2.8858
X3.715Y-2.9559
X3.7551Y-2.8858
X3.7953Y-2.9559
X3.8346Y-2.7016
X3.9248Y-2.7016
T4
X2.5498Y-2.4467
X2.5498Y-2.5467
X2.6498Y-2.4467
X2.6498Y-2.5467
X2.8498Y-2.4467
X2.8498Y-2.5467
X2.9498Y-2.4467
X2.9498Y-2.5467
X3.0498Y-2.4467
X3.0498Y-2.5467
X3.1498Y-2.4467
X3.1498Y-2.5467
X3.2498Y-2.4467
X3.2498Y-2.5467
X3.3498Y-2.4467
X3.3498Y-2.5467
X3.4498Y-2.4467
X3.4498Y-2.5467
X3.5498Y-2.4467
X3.5498Y-2.5467
X3.6498Y-2.4467
X3.6498Y-2.5467
X3.8498Y-2.4467
X3.8498Y-2.5467
X3.9498Y-2.4467
X3.9498Y-2.5467
T1
X2.5079Y-2.8972G85X2.5079Y-2.9445
G05
X3.1457Y-2.8972G85X3.1457Y-2.9445
G05
X3.3358Y-2.8972G85X3.3358Y-2.9445
G05
X3.9736Y-2.8972G85X3.9736Y-2.9445
G05
T0
M30
