G04 #@! TF.FileFunction,Legend,Top*
%FSLAX46Y46*%
G04 Gerber Fmt 4.6, Leading zero omitted, Abs format (unit mm)*
G04 Created by KiCad (PCBNEW (2015-01-08 BZR 5360)-product) date 2015-02-07T22:50:42 CET*
%MOMM*%
G01*
G04 APERTURE LIST*
%ADD10C,0.150000*%
%ADD11C,0.200000*%
%ADD12C,0.300000*%
%ADD13C,0.203200*%
G04 APERTURE END LIST*
D10*
D11*
X98250000Y-66250000D02*
X99000000Y-67000000D01*
X99000000Y-67000000D02*
X98250000Y-67750000D01*
X98250000Y-67750000D02*
X98250000Y-66250000D01*
X99000000Y-66250000D02*
X99000000Y-67750000D01*
X99000000Y-67000000D02*
X99750000Y-67000000D01*
X98250000Y-67000000D02*
X97500000Y-67000000D01*
X65750000Y-67000000D02*
X65000000Y-67000000D01*
X66500000Y-67000000D02*
X67250000Y-67000000D01*
X66500000Y-66250000D02*
X66500000Y-67750000D01*
X65750000Y-67750000D02*
X65750000Y-66250000D01*
X66500000Y-67000000D02*
X65750000Y-67750000D01*
X65750000Y-66250000D02*
X66500000Y-67000000D01*
D12*
X103135857Y-64020000D02*
X102993000Y-63948571D01*
X102778714Y-63948571D01*
X102564429Y-64020000D01*
X102421571Y-64162857D01*
X102350143Y-64305714D01*
X102278714Y-64591429D01*
X102278714Y-64805714D01*
X102350143Y-65091429D01*
X102421571Y-65234286D01*
X102564429Y-65377143D01*
X102778714Y-65448571D01*
X102921571Y-65448571D01*
X103135857Y-65377143D01*
X103207286Y-65305714D01*
X103207286Y-64805714D01*
X102921571Y-64805714D01*
X102743000Y-62194286D02*
X102743000Y-62908571D01*
X102243000Y-61408571D02*
X102743000Y-62194286D01*
X103243000Y-61408571D01*
X62876857Y-64020000D02*
X62734000Y-63948571D01*
X62519714Y-63948571D01*
X62305429Y-64020000D01*
X62162571Y-64162857D01*
X62091143Y-64305714D01*
X62019714Y-64591429D01*
X62019714Y-64805714D01*
X62091143Y-65091429D01*
X62162571Y-65234286D01*
X62305429Y-65377143D01*
X62519714Y-65448571D01*
X62662571Y-65448571D01*
X62876857Y-65377143D01*
X62948286Y-65305714D01*
X62948286Y-64805714D01*
X62662571Y-64805714D01*
X62484000Y-62321286D02*
X62484000Y-63035571D01*
X61984000Y-61535571D02*
X62484000Y-62321286D01*
X62984000Y-61535571D01*
X91000000Y-78678571D02*
X90500000Y-77964286D01*
X90142857Y-78678571D02*
X90142857Y-77178571D01*
X90714285Y-77178571D01*
X90857143Y-77250000D01*
X90928571Y-77321429D01*
X91000000Y-77464286D01*
X91000000Y-77678571D01*
X90928571Y-77821429D01*
X90857143Y-77892857D01*
X90714285Y-77964286D01*
X90142857Y-77964286D01*
X91642857Y-78678571D02*
X91642857Y-77178571D01*
X93142857Y-77250000D02*
X93000000Y-77178571D01*
X92785714Y-77178571D01*
X92571429Y-77250000D01*
X92428571Y-77392857D01*
X92357143Y-77535714D01*
X92285714Y-77821429D01*
X92285714Y-78035714D01*
X92357143Y-78321429D01*
X92428571Y-78464286D01*
X92571429Y-78607143D01*
X92785714Y-78678571D01*
X92928571Y-78678571D01*
X93142857Y-78607143D01*
X93214286Y-78535714D01*
X93214286Y-78035714D01*
X92928571Y-78035714D01*
X93857143Y-78678571D02*
X93857143Y-77178571D01*
X93857143Y-77892857D02*
X94714286Y-77892857D01*
X94714286Y-78678571D02*
X94714286Y-77178571D01*
X95214286Y-77178571D02*
X96071429Y-77178571D01*
X95642858Y-78678571D02*
X95642858Y-77178571D01*
X70571429Y-78678571D02*
X69857143Y-78678571D01*
X69857143Y-77178571D01*
X71071429Y-77892857D02*
X71571429Y-77892857D01*
X71785715Y-78678571D02*
X71071429Y-78678571D01*
X71071429Y-77178571D01*
X71785715Y-77178571D01*
X72928572Y-77892857D02*
X72428572Y-77892857D01*
X72428572Y-78678571D02*
X72428572Y-77178571D01*
X73142858Y-77178571D01*
X73500000Y-77178571D02*
X74357143Y-77178571D01*
X73928572Y-78678571D02*
X73928572Y-77178571D01*
X95714286Y-65448571D02*
X95214286Y-64734286D01*
X94857143Y-65448571D02*
X94857143Y-63948571D01*
X95428571Y-63948571D01*
X95571429Y-64020000D01*
X95642857Y-64091429D01*
X95714286Y-64234286D01*
X95714286Y-64448571D01*
X95642857Y-64591429D01*
X95571429Y-64662857D01*
X95428571Y-64734286D01*
X94857143Y-64734286D01*
X70314286Y-62908571D02*
X69600000Y-62908571D01*
X69600000Y-61408571D01*
D10*
X66035000Y-63415000D02*
X66035000Y-60875000D01*
X68575000Y-63415000D02*
X68575000Y-60875000D01*
X68575000Y-60875000D02*
X66035000Y-60875000D01*
X66035000Y-60875000D02*
X63495000Y-60875000D01*
X63495000Y-60875000D02*
X63495000Y-63415000D01*
X63495000Y-63415000D02*
X68575000Y-63415000D01*
X66035000Y-65955000D02*
X66035000Y-63415000D01*
X68575000Y-65955000D02*
X68575000Y-63415000D01*
X68575000Y-63415000D02*
X66035000Y-63415000D01*
X66035000Y-63415000D02*
X63495000Y-63415000D01*
X63495000Y-63415000D02*
X63495000Y-65955000D01*
X63495000Y-65955000D02*
X68575000Y-65955000D01*
X91435000Y-65955000D02*
X71115000Y-65955000D01*
X71115000Y-65955000D02*
X71115000Y-63415000D01*
X71115000Y-63415000D02*
X91435000Y-63415000D01*
X93975000Y-65955000D02*
X91435000Y-65955000D01*
X91435000Y-65955000D02*
X91435000Y-63415000D01*
X93975000Y-65955000D02*
X93975000Y-63415000D01*
X93975000Y-63415000D02*
X91435000Y-63415000D01*
X99055000Y-65955000D02*
X99055000Y-63415000D01*
X101595000Y-65955000D02*
X101595000Y-63415000D01*
X101595000Y-63415000D02*
X99055000Y-63415000D01*
X99055000Y-63415000D02*
X96515000Y-63415000D01*
X96515000Y-63415000D02*
X96515000Y-65955000D01*
X96515000Y-65955000D02*
X101595000Y-65955000D01*
X91435000Y-63415000D02*
X71115000Y-63415000D01*
X71115000Y-63415000D02*
X71115000Y-60875000D01*
X71115000Y-60875000D02*
X91435000Y-60875000D01*
X93975000Y-63415000D02*
X91435000Y-63415000D01*
X91435000Y-63415000D02*
X91435000Y-60875000D01*
X93975000Y-63415000D02*
X93975000Y-60875000D01*
X93975000Y-60875000D02*
X91435000Y-60875000D01*
X99055000Y-63415000D02*
X99055000Y-60875000D01*
X101595000Y-63415000D02*
X101595000Y-60875000D01*
X101595000Y-60875000D02*
X99055000Y-60875000D01*
X99055000Y-60875000D02*
X96515000Y-60875000D01*
X96515000Y-60875000D02*
X96515000Y-63415000D01*
X96515000Y-63415000D02*
X101595000Y-63415000D01*
X100690000Y-68490000D02*
X100930000Y-68490000D01*
X98400000Y-68490000D02*
X98690000Y-68490000D01*
X89260000Y-68490000D02*
X96410000Y-68490000D01*
X84970000Y-68490000D02*
X84730000Y-68490000D01*
X86970000Y-68490000D02*
X87260000Y-68490000D01*
X100930000Y-72600000D02*
X100930000Y-68490000D01*
X84730000Y-68490000D02*
X84730000Y-72600000D01*
X84730000Y-75780000D02*
X84730000Y-84190000D01*
X84730000Y-84190000D02*
X100930000Y-84190000D01*
X100930000Y-84190000D02*
X100930000Y-75780000D01*
X79660000Y-68490000D02*
X79900000Y-68490000D01*
X77370000Y-68490000D02*
X77660000Y-68490000D01*
X68230000Y-68490000D02*
X75380000Y-68490000D01*
X63940000Y-68490000D02*
X63700000Y-68490000D01*
X65940000Y-68490000D02*
X66230000Y-68490000D01*
X79900000Y-72600000D02*
X79900000Y-68490000D01*
X63700000Y-68490000D02*
X63700000Y-72600000D01*
X63700000Y-75780000D02*
X63700000Y-84190000D01*
X63700000Y-84190000D02*
X79900000Y-84190000D01*
X79900000Y-84190000D02*
X79900000Y-75780000D01*
X65296905Y-64883381D02*
X65296905Y-63883381D01*
X65677858Y-63883381D01*
X65773096Y-63931000D01*
X65820715Y-63978619D01*
X65868334Y-64073857D01*
X65868334Y-64216714D01*
X65820715Y-64311952D01*
X65773096Y-64359571D01*
X65677858Y-64407190D01*
X65296905Y-64407190D01*
X66201667Y-63883381D02*
X66820715Y-63883381D01*
X66487381Y-64264333D01*
X66630239Y-64264333D01*
X66725477Y-64311952D01*
X66773096Y-64359571D01*
X66820715Y-64454810D01*
X66820715Y-64692905D01*
X66773096Y-64788143D01*
X66725477Y-64835762D01*
X66630239Y-64883381D01*
X66344524Y-64883381D01*
X66249286Y-64835762D01*
X66201667Y-64788143D01*
X65296905Y-67423381D02*
X65296905Y-66423381D01*
X65677858Y-66423381D01*
X65773096Y-66471000D01*
X65820715Y-66518619D01*
X65868334Y-66613857D01*
X65868334Y-66756714D01*
X65820715Y-66851952D01*
X65773096Y-66899571D01*
X65677858Y-66947190D01*
X65296905Y-66947190D01*
X66820715Y-67423381D02*
X66249286Y-67423381D01*
X66535000Y-67423381D02*
X66535000Y-66423381D01*
X66439762Y-66566238D01*
X66344524Y-66661476D01*
X66249286Y-66709095D01*
X81806905Y-67423381D02*
X81806905Y-66423381D01*
X82187858Y-66423381D01*
X82283096Y-66471000D01*
X82330715Y-66518619D01*
X82378334Y-66613857D01*
X82378334Y-66756714D01*
X82330715Y-66851952D01*
X82283096Y-66899571D01*
X82187858Y-66947190D01*
X81806905Y-66947190D01*
X82759286Y-66518619D02*
X82806905Y-66471000D01*
X82902143Y-66423381D01*
X83140239Y-66423381D01*
X83235477Y-66471000D01*
X83283096Y-66518619D01*
X83330715Y-66613857D01*
X83330715Y-66709095D01*
X83283096Y-66851952D01*
X82711667Y-67423381D01*
X83330715Y-67423381D01*
X98316905Y-67423381D02*
X98316905Y-66423381D01*
X98697858Y-66423381D01*
X98793096Y-66471000D01*
X98840715Y-66518619D01*
X98888334Y-66613857D01*
X98888334Y-66756714D01*
X98840715Y-66851952D01*
X98793096Y-66899571D01*
X98697858Y-66947190D01*
X98316905Y-66947190D01*
X99745477Y-66756714D02*
X99745477Y-67423381D01*
X99507381Y-66375762D02*
X99269286Y-67090048D01*
X99888334Y-67090048D01*
X81806905Y-64883381D02*
X81806905Y-63883381D01*
X82187858Y-63883381D01*
X82283096Y-63931000D01*
X82330715Y-63978619D01*
X82378334Y-64073857D01*
X82378334Y-64216714D01*
X82330715Y-64311952D01*
X82283096Y-64359571D01*
X82187858Y-64407190D01*
X81806905Y-64407190D01*
X83283096Y-63883381D02*
X82806905Y-63883381D01*
X82759286Y-64359571D01*
X82806905Y-64311952D01*
X82902143Y-64264333D01*
X83140239Y-64264333D01*
X83235477Y-64311952D01*
X83283096Y-64359571D01*
X83330715Y-64454810D01*
X83330715Y-64692905D01*
X83283096Y-64788143D01*
X83235477Y-64835762D01*
X83140239Y-64883381D01*
X82902143Y-64883381D01*
X82806905Y-64835762D01*
X82759286Y-64788143D01*
X98316905Y-64883381D02*
X98316905Y-63883381D01*
X98697858Y-63883381D01*
X98793096Y-63931000D01*
X98840715Y-63978619D01*
X98888334Y-64073857D01*
X98888334Y-64216714D01*
X98840715Y-64311952D01*
X98793096Y-64359571D01*
X98697858Y-64407190D01*
X98316905Y-64407190D01*
X99745477Y-63883381D02*
X99555000Y-63883381D01*
X99459762Y-63931000D01*
X99412143Y-63978619D01*
X99316905Y-64121476D01*
X99269286Y-64311952D01*
X99269286Y-64692905D01*
X99316905Y-64788143D01*
X99364524Y-64835762D01*
X99459762Y-64883381D01*
X99650239Y-64883381D01*
X99745477Y-64835762D01*
X99793096Y-64788143D01*
X99840715Y-64692905D01*
X99840715Y-64454810D01*
X99793096Y-64359571D01*
X99745477Y-64311952D01*
X99650239Y-64264333D01*
X99459762Y-64264333D01*
X99364524Y-64311952D01*
X99316905Y-64359571D01*
X99269286Y-64454810D01*
D13*
X92496667Y-85032381D02*
X92496667Y-85746667D01*
X92449047Y-85889524D01*
X92353809Y-85984762D01*
X92210952Y-86032381D01*
X92115714Y-86032381D01*
X92925238Y-85127619D02*
X92972857Y-85080000D01*
X93068095Y-85032381D01*
X93306191Y-85032381D01*
X93401429Y-85080000D01*
X93449048Y-85127619D01*
X93496667Y-85222857D01*
X93496667Y-85318095D01*
X93449048Y-85460952D01*
X92877619Y-86032381D01*
X93496667Y-86032381D01*
X89589443Y-67052725D02*
X89255856Y-66576172D01*
X89017580Y-67052725D02*
X89017580Y-66051965D01*
X89398822Y-66051965D01*
X89494133Y-66099620D01*
X89541788Y-66147275D01*
X89589443Y-66242586D01*
X89589443Y-66385551D01*
X89541788Y-66480862D01*
X89494133Y-66528517D01*
X89398822Y-66576172D01*
X89017580Y-66576172D01*
X90304272Y-66051965D02*
X90304272Y-66766793D01*
X90256616Y-66909759D01*
X90161306Y-67005070D01*
X90018340Y-67052725D01*
X89923030Y-67052725D01*
X91209721Y-66385551D02*
X91209721Y-67052725D01*
X90971445Y-66004310D02*
X90733169Y-66719138D01*
X91352687Y-66719138D01*
X92210482Y-66051965D02*
X91733929Y-66051965D01*
X91686274Y-66528517D01*
X91733929Y-66480862D01*
X91829240Y-66433207D01*
X92067516Y-66433207D01*
X92162826Y-66480862D01*
X92210482Y-66528517D01*
X92258137Y-66623828D01*
X92258137Y-66862104D01*
X92210482Y-66957414D01*
X92162826Y-67005070D01*
X92067516Y-67052725D01*
X91829240Y-67052725D01*
X91733929Y-67005070D01*
X91686274Y-66957414D01*
X92448758Y-67148035D02*
X93211242Y-67148035D01*
X93926071Y-67052725D02*
X93449518Y-67052725D01*
X93449518Y-66051965D01*
X94259657Y-66528517D02*
X94593244Y-66528517D01*
X94736210Y-67052725D02*
X94259657Y-67052725D01*
X94259657Y-66051965D01*
X94736210Y-66051965D01*
X95165107Y-67052725D02*
X95165107Y-66051965D01*
X95403383Y-66051965D01*
X95546349Y-66099620D01*
X95641660Y-66194930D01*
X95689315Y-66290241D01*
X95736970Y-66480862D01*
X95736970Y-66623828D01*
X95689315Y-66814449D01*
X95641660Y-66909759D01*
X95546349Y-67005070D01*
X95403383Y-67052725D01*
X95165107Y-67052725D01*
X96118212Y-67005070D02*
X96261178Y-67052725D01*
X96499454Y-67052725D01*
X96594764Y-67005070D01*
X96642420Y-66957414D01*
X96690075Y-66862104D01*
X96690075Y-66766793D01*
X96642420Y-66671483D01*
X96594764Y-66623828D01*
X96499454Y-66576172D01*
X96308833Y-66528517D01*
X96213522Y-66480862D01*
X96165867Y-66433207D01*
X96118212Y-66337896D01*
X96118212Y-66242586D01*
X96165867Y-66147275D01*
X96213522Y-66099620D01*
X96308833Y-66051965D01*
X96547109Y-66051965D01*
X96690075Y-66099620D01*
X71466667Y-85032381D02*
X71466667Y-85746667D01*
X71419047Y-85889524D01*
X71323809Y-85984762D01*
X71180952Y-86032381D01*
X71085714Y-86032381D01*
X72466667Y-86032381D02*
X71895238Y-86032381D01*
X72180952Y-86032381D02*
X72180952Y-85032381D01*
X72085714Y-85175238D01*
X71990476Y-85270476D01*
X71895238Y-85318095D01*
X68559443Y-67052725D02*
X68225856Y-66576172D01*
X67987580Y-67052725D02*
X67987580Y-66051965D01*
X68368822Y-66051965D01*
X68464133Y-66099620D01*
X68511788Y-66147275D01*
X68559443Y-66242586D01*
X68559443Y-66385551D01*
X68511788Y-66480862D01*
X68464133Y-66528517D01*
X68368822Y-66576172D01*
X67987580Y-66576172D01*
X69274272Y-66051965D02*
X69274272Y-66766793D01*
X69226616Y-66909759D01*
X69131306Y-67005070D01*
X68988340Y-67052725D01*
X68893030Y-67052725D01*
X70179721Y-66385551D02*
X70179721Y-67052725D01*
X69941445Y-66004310D02*
X69703169Y-66719138D01*
X70322687Y-66719138D01*
X71180482Y-66051965D02*
X70703929Y-66051965D01*
X70656274Y-66528517D01*
X70703929Y-66480862D01*
X70799240Y-66433207D01*
X71037516Y-66433207D01*
X71132826Y-66480862D01*
X71180482Y-66528517D01*
X71228137Y-66623828D01*
X71228137Y-66862104D01*
X71180482Y-66957414D01*
X71132826Y-67005070D01*
X71037516Y-67052725D01*
X70799240Y-67052725D01*
X70703929Y-67005070D01*
X70656274Y-66957414D01*
X71418758Y-67148035D02*
X72181242Y-67148035D01*
X72896071Y-67052725D02*
X72419518Y-67052725D01*
X72419518Y-66051965D01*
X73229657Y-66528517D02*
X73563244Y-66528517D01*
X73706210Y-67052725D02*
X73229657Y-67052725D01*
X73229657Y-66051965D01*
X73706210Y-66051965D01*
X74135107Y-67052725D02*
X74135107Y-66051965D01*
X74373383Y-66051965D01*
X74516349Y-66099620D01*
X74611660Y-66194930D01*
X74659315Y-66290241D01*
X74706970Y-66480862D01*
X74706970Y-66623828D01*
X74659315Y-66814449D01*
X74611660Y-66909759D01*
X74516349Y-67005070D01*
X74373383Y-67052725D01*
X74135107Y-67052725D01*
X75088212Y-67005070D02*
X75231178Y-67052725D01*
X75469454Y-67052725D01*
X75564764Y-67005070D01*
X75612420Y-66957414D01*
X75660075Y-66862104D01*
X75660075Y-66766793D01*
X75612420Y-66671483D01*
X75564764Y-66623828D01*
X75469454Y-66576172D01*
X75278833Y-66528517D01*
X75183522Y-66480862D01*
X75135867Y-66433207D01*
X75088212Y-66337896D01*
X75088212Y-66242586D01*
X75135867Y-66147275D01*
X75183522Y-66099620D01*
X75278833Y-66051965D01*
X75517109Y-66051965D01*
X75660075Y-66099620D01*
M02*
